<svg xmlns="http://www.w3.org/2000/svg" viewBox="0 0 64 64" role="img" aria-label="CatalogoSaaS">
  <defs>
    <linearGradient id="bg" x1="10" y1="8" x2="54" y2="58" gradientUnits="userSpaceOnUse">
      <stop offset="0" stop-color="#2563eb"/>
      <stop offset="1" stop-color="#4f46e5"/>
    </linearGradient>
    <linearGradient id="page" x1="21" y1="16" x2="45" y2="49" gradientUnits="userSpaceOnUse">
      <stop offset="0" stop-color="#ffffff"/>
      <stop offset="1" stop-color="#e0e7ff"/>
    </linearGradient>
  </defs>

  <rect width="64" height="64" rx="16" fill="url(#bg)"/>
  <path d="M18 20.5c0-3 2.4-5.5 5.5-5.5H43c2.8 0 5 2.2 5 5v28.5c0 .9-1 1.5-1.8 1.1L41 47l-5.2 2.6a2 2 0 0 1-1.8 0L29 47l-5.2 2.6c-.8.4-1.8-.2-1.8-1.1V24h-1a3 3 0 0 1-3-3.5z" fill="#172554" opacity=".24"/>
  <path d="M16 18.5c0-3 2.4-5.5 5.5-5.5H41c2.8 0 5 2.2 5 5v28.5c0 .9-1 1.5-1.8 1.1L39 45l-5.2 2.6a2 2 0 0 1-1.8 0L27 45l-5.2 2.6c-.8.4-1.8-.2-1.8-1.1V22h-1a3 3 0 0 1-3-3.5z" fill="url(#page)"/>
  <path d="M21.5 13H41c2.8 0 5 2.2 5 5v3H21.5a4 4 0 0 1 0-8z" fill="#bfdbfe"/>
  <path d="M24 29h14M24 35h16M24 41h9" stroke="#1e3a8a" stroke-width="3" stroke-linecap="round"/>
  <circle cx="43" cy="39" r="9" fill="#22c55e"/>
  <path d="m39.5 39 2.3 2.3 5-5" fill="none" stroke="#fff" stroke-width="2.7" stroke-linecap="round" stroke-linejoin="round"/>
</svg>
